<mxfile host="app.diagrams.net" modified="2024-07-01T11:00:12.398Z" agent="Mozilla/5.0 (Windows NT 10.0; Win64; x64) AppleWebKit/537.36 (KHTML, like Gecko) Chrome/126.0.0.0 Safari/537.36" etag="8R_xPpUJ0m6H_qsR9uTV" version="24.6.3" type="device">
  <diagram name="Page-1" id="qGl7KstBWzUXytD_VmfC">
    <mxGraphModel dx="4655" dy="2016" grid="1" gridSize="10" guides="1" tooltips="1" connect="1" arrows="1" fold="1" page="1" pageScale="1" pageWidth="827" pageHeight="1169" math="0" shadow="0">
      <root>
        <mxCell id="0" />
        <mxCell id="1" parent="0" />
        <mxCell id="S8PKc2ykgDNiForFXmJr-14" style="rounded=0;orthogonalLoop=1;jettySize=auto;html=1;entryX=0.215;entryY=0.961;entryDx=0;entryDy=0;entryPerimeter=0;" edge="1" parent="1" source="S8PKc2ykgDNiForFXmJr-1" target="S8PKc2ykgDNiForFXmJr-3">
          <mxGeometry relative="1" as="geometry" />
        </mxCell>
        <mxCell id="S8PKc2ykgDNiForFXmJr-15" style="rounded=0;orthogonalLoop=1;jettySize=auto;html=1;entryX=0;entryY=0.5;entryDx=0;entryDy=0;" edge="1" parent="1" source="S8PKc2ykgDNiForFXmJr-1" target="S8PKc2ykgDNiForFXmJr-10">
          <mxGeometry relative="1" as="geometry" />
        </mxCell>
        <mxCell id="S8PKc2ykgDNiForFXmJr-16" style="rounded=0;orthogonalLoop=1;jettySize=auto;html=1;" edge="1" parent="1" source="S8PKc2ykgDNiForFXmJr-1" target="S8PKc2ykgDNiForFXmJr-9">
          <mxGeometry relative="1" as="geometry" />
        </mxCell>
        <mxCell id="S8PKc2ykgDNiForFXmJr-17" style="rounded=0;orthogonalLoop=1;jettySize=auto;html=1;entryX=0;entryY=0.5;entryDx=0;entryDy=0;" edge="1" parent="1" source="S8PKc2ykgDNiForFXmJr-1" target="S8PKc2ykgDNiForFXmJr-4">
          <mxGeometry relative="1" as="geometry" />
        </mxCell>
        <mxCell id="S8PKc2ykgDNiForFXmJr-18" style="rounded=0;orthogonalLoop=1;jettySize=auto;html=1;entryX=0;entryY=0.5;entryDx=0;entryDy=0;" edge="1" parent="1" source="S8PKc2ykgDNiForFXmJr-1" target="S8PKc2ykgDNiForFXmJr-5">
          <mxGeometry relative="1" as="geometry" />
        </mxCell>
        <mxCell id="S8PKc2ykgDNiForFXmJr-19" style="rounded=0;orthogonalLoop=1;jettySize=auto;html=1;entryX=0;entryY=0.5;entryDx=0;entryDy=0;" edge="1" parent="1" source="S8PKc2ykgDNiForFXmJr-1" target="S8PKc2ykgDNiForFXmJr-6">
          <mxGeometry relative="1" as="geometry" />
        </mxCell>
        <mxCell id="S8PKc2ykgDNiForFXmJr-20" style="rounded=0;orthogonalLoop=1;jettySize=auto;html=1;entryX=0;entryY=0.5;entryDx=0;entryDy=0;" edge="1" parent="1" source="S8PKc2ykgDNiForFXmJr-1" target="S8PKc2ykgDNiForFXmJr-7">
          <mxGeometry relative="1" as="geometry" />
        </mxCell>
        <mxCell id="S8PKc2ykgDNiForFXmJr-21" style="rounded=0;orthogonalLoop=1;jettySize=auto;html=1;entryX=0;entryY=0.5;entryDx=0;entryDy=0;" edge="1" parent="1" source="S8PKc2ykgDNiForFXmJr-1" target="S8PKc2ykgDNiForFXmJr-8">
          <mxGeometry relative="1" as="geometry" />
        </mxCell>
        <mxCell id="S8PKc2ykgDNiForFXmJr-22" style="rounded=0;orthogonalLoop=1;jettySize=auto;html=1;entryX=0;entryY=0.5;entryDx=0;entryDy=0;" edge="1" parent="1" source="S8PKc2ykgDNiForFXmJr-1" target="S8PKc2ykgDNiForFXmJr-13">
          <mxGeometry relative="1" as="geometry">
            <Array as="points" />
          </mxGeometry>
        </mxCell>
        <mxCell id="S8PKc2ykgDNiForFXmJr-25" style="rounded=0;orthogonalLoop=1;jettySize=auto;html=1;entryX=0;entryY=0.5;entryDx=0;entryDy=0;" edge="1" parent="1" source="S8PKc2ykgDNiForFXmJr-1" target="S8PKc2ykgDNiForFXmJr-24">
          <mxGeometry relative="1" as="geometry" />
        </mxCell>
        <mxCell id="S8PKc2ykgDNiForFXmJr-28" style="rounded=0;orthogonalLoop=1;jettySize=auto;html=1;entryX=0;entryY=0.5;entryDx=0;entryDy=0;" edge="1" parent="1" source="S8PKc2ykgDNiForFXmJr-1" target="S8PKc2ykgDNiForFXmJr-27">
          <mxGeometry relative="1" as="geometry" />
        </mxCell>
        <mxCell id="S8PKc2ykgDNiForFXmJr-1" value="User" style="shape=umlActor;verticalLabelPosition=bottom;verticalAlign=top;html=1;outlineConnect=0;" vertex="1" parent="1">
          <mxGeometry x="-20" y="620" width="30" height="60" as="geometry" />
        </mxCell>
        <mxCell id="S8PKc2ykgDNiForFXmJr-2" value="Playforge" style="shape=umlFrame;whiteSpace=wrap;html=1;pointerEvents=0;recursiveResize=0;container=1;collapsible=0;width=100;height=30;" vertex="1" parent="1">
          <mxGeometry x="210" y="90" width="730" height="1180" as="geometry" />
        </mxCell>
        <mxCell id="S8PKc2ykgDNiForFXmJr-3" value="&lt;span style=&quot;font-size: 14px; background-color: rgb(248, 249, 250);&quot;&gt;Browse categories&lt;/span&gt;" style="ellipse;whiteSpace=wrap;html=1;" vertex="1" parent="S8PKc2ykgDNiForFXmJr-2">
          <mxGeometry x="40" y="50" width="140" height="70" as="geometry" />
        </mxCell>
        <mxCell id="S8PKc2ykgDNiForFXmJr-33" style="rounded=0;orthogonalLoop=1;jettySize=auto;html=1;entryX=0.284;entryY=0.967;entryDx=0;entryDy=0;dashed=1;entryPerimeter=0;" edge="1" parent="S8PKc2ykgDNiForFXmJr-2" source="S8PKc2ykgDNiForFXmJr-9" target="S8PKc2ykgDNiForFXmJr-13">
          <mxGeometry relative="1" as="geometry" />
        </mxCell>
        <mxCell id="S8PKc2ykgDNiForFXmJr-34" value="include" style="edgeLabel;html=1;align=center;verticalAlign=middle;resizable=0;points=[];" vertex="1" connectable="0" parent="S8PKc2ykgDNiForFXmJr-33">
          <mxGeometry x="0.2948" y="2" relative="1" as="geometry">
            <mxPoint as="offset" />
          </mxGeometry>
        </mxCell>
        <mxCell id="S8PKc2ykgDNiForFXmJr-9" value="&lt;span style=&quot;font-size: 14px; background-color: rgb(248, 249, 250);&quot;&gt;Add game to library&lt;/span&gt;" style="ellipse;whiteSpace=wrap;html=1;" vertex="1" parent="S8PKc2ykgDNiForFXmJr-2">
          <mxGeometry x="230" y="560" width="140" height="70" as="geometry" />
        </mxCell>
        <mxCell id="S8PKc2ykgDNiForFXmJr-51" style="rounded=0;orthogonalLoop=1;jettySize=auto;html=1;exitX=0;exitY=0;exitDx=0;exitDy=0;entryX=1;entryY=1;entryDx=0;entryDy=0;dashed=1;" edge="1" parent="S8PKc2ykgDNiForFXmJr-2" source="S8PKc2ykgDNiForFXmJr-13" target="S8PKc2ykgDNiForFXmJr-24">
          <mxGeometry relative="1" as="geometry" />
        </mxCell>
        <mxCell id="S8PKc2ykgDNiForFXmJr-52" value="include" style="edgeLabel;html=1;align=center;verticalAlign=middle;resizable=0;points=[];" vertex="1" connectable="0" parent="S8PKc2ykgDNiForFXmJr-51">
          <mxGeometry x="-0.1113" y="2" relative="1" as="geometry">
            <mxPoint as="offset" />
          </mxGeometry>
        </mxCell>
        <mxCell id="S8PKc2ykgDNiForFXmJr-13" value="Login" style="ellipse;whiteSpace=wrap;html=1;" vertex="1" parent="S8PKc2ykgDNiForFXmJr-2">
          <mxGeometry x="521" y="315" width="140" height="70" as="geometry" />
        </mxCell>
        <mxCell id="S8PKc2ykgDNiForFXmJr-24" value="Create account" style="ellipse;whiteSpace=wrap;html=1;" vertex="1" parent="S8PKc2ykgDNiForFXmJr-2">
          <mxGeometry x="120" y="230" width="140" height="65" as="geometry" />
        </mxCell>
        <mxCell id="S8PKc2ykgDNiForFXmJr-46" style="rounded=0;orthogonalLoop=1;jettySize=auto;html=1;exitX=1;exitY=0.5;exitDx=0;exitDy=0;entryX=0.649;entryY=0.961;entryDx=0;entryDy=0;dashed=1;entryPerimeter=0;" edge="1" parent="S8PKc2ykgDNiForFXmJr-2" source="S8PKc2ykgDNiForFXmJr-8" target="S8PKc2ykgDNiForFXmJr-13">
          <mxGeometry relative="1" as="geometry">
            <mxPoint x="294" y="1105" as="sourcePoint" />
            <mxPoint x="434" y="390" as="targetPoint" />
          </mxGeometry>
        </mxCell>
        <mxCell id="S8PKc2ykgDNiForFXmJr-47" value="include" style="edgeLabel;html=1;align=center;verticalAlign=middle;resizable=0;points=[];" vertex="1" connectable="0" parent="S8PKc2ykgDNiForFXmJr-46">
          <mxGeometry x="-0.5797" y="-3" relative="1" as="geometry">
            <mxPoint as="offset" />
          </mxGeometry>
        </mxCell>
        <mxCell id="S8PKc2ykgDNiForFXmJr-27" value="&lt;font style=&quot;font-size: 18px;&quot;&gt;Buy games&lt;/font&gt;" style="ellipse;whiteSpace=wrap;html=1;" vertex="1" parent="S8PKc2ykgDNiForFXmJr-2">
          <mxGeometry x="160" y="1079" width="140" height="70" as="geometry" />
        </mxCell>
        <mxCell id="S8PKc2ykgDNiForFXmJr-4" value="&lt;span style=&quot;font-size: 14px; background-color: rgb(248, 249, 250);&quot;&gt;Play game in browser&lt;/span&gt;" style="ellipse;whiteSpace=wrap;html=1;" vertex="1" parent="S8PKc2ykgDNiForFXmJr-2">
          <mxGeometry x="135" y="130" width="170" height="70" as="geometry" />
        </mxCell>
        <mxCell id="S8PKc2ykgDNiForFXmJr-56" style="rounded=0;orthogonalLoop=1;jettySize=auto;html=1;exitX=1;exitY=0;exitDx=0;exitDy=0;dashed=1;" edge="1" parent="S8PKc2ykgDNiForFXmJr-2" source="S8PKc2ykgDNiForFXmJr-5" target="S8PKc2ykgDNiForFXmJr-13">
          <mxGeometry relative="1" as="geometry">
            <mxPoint x="700" y="380" as="targetPoint" />
          </mxGeometry>
        </mxCell>
        <mxCell id="S8PKc2ykgDNiForFXmJr-57" value="include" style="edgeLabel;html=1;align=center;verticalAlign=middle;resizable=0;points=[];" vertex="1" connectable="0" parent="S8PKc2ykgDNiForFXmJr-56">
          <mxGeometry x="-0.4263" y="-4" relative="1" as="geometry">
            <mxPoint as="offset" />
          </mxGeometry>
        </mxCell>
        <mxCell id="S8PKc2ykgDNiForFXmJr-5" value="&lt;span style=&quot;font-size: 14px; background-color: rgb(248, 249, 250);&quot;&gt;Comments Game&lt;/span&gt;" style="ellipse;whiteSpace=wrap;html=1;" vertex="1" parent="S8PKc2ykgDNiForFXmJr-2">
          <mxGeometry x="390" y="870" width="140" height="70" as="geometry" />
        </mxCell>
        <mxCell id="S8PKc2ykgDNiForFXmJr-6" value="&lt;span style=&quot;font-size: 14px; background-color: rgb(248, 249, 250);&quot;&gt;Upload Game&lt;/span&gt;" style="ellipse;whiteSpace=wrap;html=1;" vertex="1" parent="S8PKc2ykgDNiForFXmJr-2">
          <mxGeometry x="290" y="650" width="140" height="70" as="geometry" />
        </mxCell>
        <mxCell id="S8PKc2ykgDNiForFXmJr-7" value="&lt;span style=&quot;font-size: 14px; background-color: rgb(248, 249, 250);&quot;&gt;Edit User Profile&lt;/span&gt;" style="ellipse;whiteSpace=wrap;html=1;" vertex="1" parent="S8PKc2ykgDNiForFXmJr-2">
          <mxGeometry x="150" y="460" width="140" height="70" as="geometry" />
        </mxCell>
        <mxCell id="S8PKc2ykgDNiForFXmJr-8" value="&lt;span style=&quot;font-size: 14px; background-color: rgb(248, 249, 250);&quot;&gt;Add Game to Cart&lt;/span&gt;" style="ellipse;whiteSpace=wrap;html=1;" vertex="1" parent="S8PKc2ykgDNiForFXmJr-2">
          <mxGeometry x="450" y="970" width="140" height="70" as="geometry" />
        </mxCell>
        <mxCell id="S8PKc2ykgDNiForFXmJr-48" style="rounded=0;orthogonalLoop=1;jettySize=auto;html=1;exitX=1;exitY=0;exitDx=0;exitDy=0;entryX=0;entryY=1;entryDx=0;entryDy=0;dashed=1;" edge="1" parent="S8PKc2ykgDNiForFXmJr-2" source="S8PKc2ykgDNiForFXmJr-27" target="S8PKc2ykgDNiForFXmJr-8">
          <mxGeometry relative="1" as="geometry" />
        </mxCell>
        <mxCell id="S8PKc2ykgDNiForFXmJr-49" value="include" style="edgeLabel;html=1;align=center;verticalAlign=middle;resizable=0;points=[];" vertex="1" connectable="0" parent="S8PKc2ykgDNiForFXmJr-48">
          <mxGeometry x="0.001" relative="1" as="geometry">
            <mxPoint as="offset" />
          </mxGeometry>
        </mxCell>
        <mxCell id="S8PKc2ykgDNiForFXmJr-43" style="rounded=0;orthogonalLoop=1;jettySize=auto;html=1;exitX=0.927;exitY=0.265;exitDx=0;exitDy=0;dashed=1;entryX=0;entryY=1;entryDx=0;entryDy=0;exitPerimeter=0;" edge="1" parent="S8PKc2ykgDNiForFXmJr-2" source="S8PKc2ykgDNiForFXmJr-7" target="S8PKc2ykgDNiForFXmJr-13">
          <mxGeometry relative="1" as="geometry">
            <mxPoint x="248" y="455" as="sourcePoint" />
            <mxPoint x="683" y="382" as="targetPoint" />
          </mxGeometry>
        </mxCell>
        <mxCell id="S8PKc2ykgDNiForFXmJr-58" value="include" style="edgeLabel;html=1;align=center;verticalAlign=middle;resizable=0;points=[];" vertex="1" connectable="0" parent="S8PKc2ykgDNiForFXmJr-43">
          <mxGeometry x="-0.1681" y="1" relative="1" as="geometry">
            <mxPoint as="offset" />
          </mxGeometry>
        </mxCell>
        <mxCell id="S8PKc2ykgDNiForFXmJr-41" style="rounded=0;orthogonalLoop=1;jettySize=auto;html=1;exitX=1;exitY=0.5;exitDx=0;exitDy=0;entryX=0.388;entryY=1.004;entryDx=0;entryDy=0;dashed=1;entryPerimeter=0;" edge="1" parent="S8PKc2ykgDNiForFXmJr-2" source="S8PKc2ykgDNiForFXmJr-6" target="S8PKc2ykgDNiForFXmJr-13">
          <mxGeometry relative="1" as="geometry">
            <mxPoint x="247" y="805" as="sourcePoint" />
            <mxPoint x="387" y="390" as="targetPoint" />
          </mxGeometry>
        </mxCell>
        <mxCell id="S8PKc2ykgDNiForFXmJr-42" value="include" style="edgeLabel;html=1;align=center;verticalAlign=middle;resizable=0;points=[];" vertex="1" connectable="0" parent="S8PKc2ykgDNiForFXmJr-41">
          <mxGeometry x="-0.4366" y="-2" relative="1" as="geometry">
            <mxPoint as="offset" />
          </mxGeometry>
        </mxCell>
        <mxCell id="S8PKc2ykgDNiForFXmJr-38" style="rounded=0;orthogonalLoop=1;jettySize=auto;html=1;exitX=1;exitY=0.5;exitDx=0;exitDy=0;entryX=0.5;entryY=1;entryDx=0;entryDy=0;dashed=1;" edge="1" parent="S8PKc2ykgDNiForFXmJr-2" source="S8PKc2ykgDNiForFXmJr-10" target="S8PKc2ykgDNiForFXmJr-13">
          <mxGeometry relative="1" as="geometry">
            <mxPoint x="220" y="705" as="sourcePoint" />
            <mxPoint x="360" y="390" as="targetPoint" />
          </mxGeometry>
        </mxCell>
        <mxCell id="S8PKc2ykgDNiForFXmJr-39" value="include" style="edgeLabel;html=1;align=center;verticalAlign=middle;resizable=0;points=[];" vertex="1" connectable="0" parent="S8PKc2ykgDNiForFXmJr-38">
          <mxGeometry x="0.0864" y="2" relative="1" as="geometry">
            <mxPoint as="offset" />
          </mxGeometry>
        </mxCell>
        <mxCell id="S8PKc2ykgDNiForFXmJr-53" value="" style="rounded=0;orthogonalLoop=1;jettySize=auto;html=1;exitX=0.5;exitY=0;exitDx=0;exitDy=0;entryX=0.5;entryY=1;entryDx=0;entryDy=0;dashed=1;" edge="1" parent="S8PKc2ykgDNiForFXmJr-2" source="S8PKc2ykgDNiForFXmJr-5" target="S8PKc2ykgDNiForFXmJr-10">
          <mxGeometry relative="1" as="geometry">
            <mxPoint x="530" y="925" as="sourcePoint" />
            <mxPoint x="960" y="461" as="targetPoint" />
          </mxGeometry>
        </mxCell>
        <mxCell id="S8PKc2ykgDNiForFXmJr-59" value="include" style="edgeLabel;html=1;align=center;verticalAlign=middle;resizable=0;points=[];" vertex="1" connectable="0" parent="S8PKc2ykgDNiForFXmJr-53">
          <mxGeometry x="-0.1457" y="-1" relative="1" as="geometry">
            <mxPoint as="offset" />
          </mxGeometry>
        </mxCell>
        <mxCell id="S8PKc2ykgDNiForFXmJr-10" value="&lt;span style=&quot;font-size: 14px; background-color: rgb(248, 249, 250);&quot;&gt;Download Game&lt;/span&gt;" style="ellipse;whiteSpace=wrap;html=1;" vertex="1" parent="S8PKc2ykgDNiForFXmJr-2">
          <mxGeometry x="340" y="750" width="140" height="70" as="geometry" />
        </mxCell>
        <mxCell id="S8PKc2ykgDNiForFXmJr-11" value="AuthService" style="shape=umlActor;verticalLabelPosition=bottom;verticalAlign=top;html=1;outlineConnect=0;" vertex="1" parent="1">
          <mxGeometry x="1010" y="270" width="30" height="60" as="geometry" />
        </mxCell>
        <mxCell id="S8PKc2ykgDNiForFXmJr-23" style="rounded=0;orthogonalLoop=1;jettySize=auto;html=1;entryX=0.996;entryY=0.39;entryDx=0;entryDy=0;entryPerimeter=0;" edge="1" parent="1" source="S8PKc2ykgDNiForFXmJr-11" target="S8PKc2ykgDNiForFXmJr-13">
          <mxGeometry relative="1" as="geometry" />
        </mxCell>
        <mxCell id="S8PKc2ykgDNiForFXmJr-26" style="rounded=0;orthogonalLoop=1;jettySize=auto;html=1;entryX=1;entryY=0.5;entryDx=0;entryDy=0;" edge="1" parent="1" source="S8PKc2ykgDNiForFXmJr-11" target="S8PKc2ykgDNiForFXmJr-24">
          <mxGeometry relative="1" as="geometry" />
        </mxCell>
        <mxCell id="S8PKc2ykgDNiForFXmJr-12" value="Stripe" style="shape=umlActor;verticalLabelPosition=bottom;verticalAlign=top;html=1;outlineConnect=0;" vertex="1" parent="1">
          <mxGeometry x="990" y="1100" width="30" height="60" as="geometry" />
        </mxCell>
        <mxCell id="S8PKc2ykgDNiForFXmJr-30" style="rounded=0;orthogonalLoop=1;jettySize=auto;html=1;entryX=1;entryY=0.5;entryDx=0;entryDy=0;" edge="1" parent="1" source="S8PKc2ykgDNiForFXmJr-12" target="S8PKc2ykgDNiForFXmJr-27">
          <mxGeometry relative="1" as="geometry" />
        </mxCell>
      </root>
    </mxGraphModel>
  </diagram>
</mxfile>
